General
Complete name                    : The Wicker Man.mkv
Format                           : Matroska
File size                        : 1.48 GiB
Duration                         : 1h 24mn
Overall bit rate                 : 2 504 Kbps


Video


Codec ID                         : V_MPEG4/ISO/AVC
Duration                         : 1h 24mn
Bit rate                         : 2 001 Kbps
Nominal bit rate                 : 2 034 Kbps
Width                            : 718 pixels
Height                           : 576 pixels
Display aspect ratio             : 16/9
Frame rate                       : 25.000 fps
Resolution                       : 24 bits
Colorimetry                      : 4:2:0
Scan type                        : Progressive
Bits/(Pixel*Frame)               : 0.194
Stream size                      : 1.18 GiB (80%)
Writing library                  : x264 core 79


Audio
ID                               : 2
Format                           : AC-3
Format/Info                      : Audio Coding 3
Codec ID                         : A_AC3
Duration                         : 1h 24mn
Bit rate mode                    : Constant
Bit rate                         : 448 Kbps
Channel(s)                       : 6 channels
Channel positions                : Front: L C R, Surround: L R, LFE
Sampling rate                    : 48.0 KHz
Stream size                      : 270 MiB (18%)
Language                         : English

Text #1
Language                         : Swedish

Text #2
Language                         : Italian

Text #3
Language                         : Norwegian

Text #4
Language                         : Danish

Text #5
Language                         : Finnish